<svg width="100" height="100" viewBox="0 0 100 100" fill="none" xmlns="http://www.w3.org/2000/svg">
<rect width="100" height="100" fill="#E5E5E5"/>
<rect width="100" height="100" rx="20" fill="#F7B22E"/>
<path d="M29.5391 69.1328C31.3047 68.9453 32.4453 68.6328 32.9609 68.1953C33.4922 67.7422 33.7578 66.6094 33.7578 64.7969V43.4453C33.7578 41.7422 33.5 40.6328 32.9844 40.1172C32.4688 39.5859 31.3203 39.2578 29.5391 39.1328V38.2422H43.1094V39.1328C41.3438 39.2266 40.1562 39.5156 39.5469 40C38.9531 40.4844 38.6562 41.5234 38.6562 43.1172V66.1797C38.6562 66.7109 38.7422 67.1328 38.9141 67.4453C39.1016 67.7422 39.5 67.9297 40.1094 68.0078C40.4688 68.0547 40.8438 68.0859 41.2344 68.1016C41.6406 68.1172 42.3906 68.125 43.4844 68.125C47.75 68.125 50.6328 67.7734 52.1328 67.0703C53.6328 66.3672 55.0859 64.5703 56.4922 61.6797H57.7109L55.3672 70H29.5391V69.1328Z" fill="black"/>
<path d="M47.0938 50.3438C47.9062 52.5 48.8594 54.2188 49.9531 55.5C51.8594 57.7344 54.2266 58.8516 57.0547 58.8516C58.5859 58.8516 59.9062 58.3672 61.0156 57.3984C62.1406 56.4297 62.7031 55.0781 62.7031 53.3438C62.7031 51.7812 62.1406 50.4219 61.0156 49.2656C60.2812 48.5312 58.7344 47.4297 56.375 45.9609L52.2734 43.4062C51.0391 42.625 50.0547 41.8359 49.3203 41.0391C47.9609 39.5234 47.2812 37.8516 47.2812 36.0234C47.2812 33.6016 48.0859 31.5859 49.6953 29.9766C51.3047 28.3672 53.4375 27.5625 56.0938 27.5625C57.1875 27.5625 58.5 27.8359 60.0312 28.3828C61.5781 28.9141 62.4609 29.1797 62.6797 29.1797C63.2734 29.1797 63.6797 29.0391 63.8984 28.7578C64.1328 28.4766 64.3125 28.0781 64.4375 27.5625H65.4219L66.4766 37.7812H65.3281C64.5469 34.7031 63.2891 32.5547 61.5547 31.3359C59.8359 30.1172 58.1328 29.5078 56.4453 29.5078C55.1328 29.5078 53.9844 29.8984 53 30.6797C52.0312 31.4453 51.5469 32.5156 51.5469 33.8906C51.5469 35.125 51.9219 36.1797 52.6719 37.0547C53.4219 37.9453 54.5859 38.875 56.1641 39.8438L60.3828 42.4453C63.0234 44.0703 64.8828 45.5625 65.9609 46.9219C67.0234 48.2969 67.5547 49.9219 67.5547 51.7969C67.5547 54.3125 66.6016 56.4141 64.6953 58.1016C62.8047 59.7891 60.3828 60.6328 57.4297 60.6328C55.9453 60.6328 54.3906 60.3516 52.7656 59.7891C51.1562 59.2266 50.2344 58.9453 50 58.9453C49.4375 58.9453 49.0547 59.1172 48.8516 59.4609C48.6641 59.8047 48.5391 60.1719 48.4766 60.5625H47.4219L45.9922 50.3438H47.0938Z" fill="white"/>
</svg>
